HIERARCHY
ROOT root
{
	OFFSET	0	13.1	24.9
	CHANNELS 6  Xposition Yposition Zposition Xrotation Yrotation Zrotation
	JOINT spine_1
	{
		OFFSET	0	9.99999	0
		CHANNELS 3  Xrotation Yrotation Zrotation
		JOINT spine_2
		{
			OFFSET	0	112	-10
			CHANNELS 3  Xrotation Yrotation Zrotation
			JOINT spine_3
			{
				OFFSET	0	206.5	19.3
				CHANNELS 3  Xrotation Yrotation Zrotation
				JOINT spine_4
				{
					OFFSET	0	110.4	14.6
					CHANNELS 3  Xrotation Yrotation Zrotation
					JOINT neck_1
					{
						OFFSET	0	71.8	-50.3
						CHANNELS 3  Xrotation Yrotation Zrotation
						JOINT neck_2
						{
							OFFSET	0	86.2	-25.8
							CHANNELS 3  Xrotation Yrotation Zrotation
							JOINT head_ee
							{
								OFFSET	0	179.8	-8.7
								CHANNELS 3  Xrotation Yrotation Zrotation
								End Site
								{
									OFFSET	1	0	0
								}
							}
						}
					}
					JOINT left_clavicle
					{
						OFFSET	-43.2	22.4	-70.8
						CHANNELS 3  Xrotation Yrotation Zrotation
						JOINT left_shoulder
						{
							OFFSET	-93.9	-5.79999	48.7
							CHANNELS 3  Xrotation Yrotation Zrotation
							JOINT left_elbow
							{
								OFFSET	-291.4	-30.8	15.2
								CHANNELS 3  Xrotation Yrotation Zrotation
								JOINT left_lowarm_twist
								{
									OFFSET	-110.7	-3.89999	13.6
									CHANNELS 3  Xrotation Yrotation Zrotation
									JOINT left_hand
									{
										OFFSET	-110.7	-3.89999	13.6
										CHANNELS 3  Xrotation Yrotation Zrotation
										JOINT left_ee
										{
											OFFSET	-80.8	-5.10001	12.1
											CHANNELS 3  Xrotation Yrotation Zrotation
											End Site
											{
												OFFSET	1	0	0
											}
										}
									}
								}
							}
						}
					}
					JOINT right_clavicle
					{
						OFFSET	43.2	22.4	-70.8
						CHANNELS 3  Xrotation Yrotation Zrotation
						JOINT right_shoulder
						{
							OFFSET	93.9	-5.79999	48.7
							CHANNELS 3  Xrotation Yrotation Zrotation
							JOINT right_elbow
							{
								OFFSET	291.4	-30.8	15.2
								CHANNELS 3  Xrotation Yrotation Zrotation
								JOINT right_lowarm_twist
								{
									OFFSET	110.7	-3.89999	13.6
									CHANNELS 3  Xrotation Yrotation Zrotation
									JOINT right_hand
									{
										OFFSET	110.7	-3.89999	13.6
										CHANNELS 3  Xrotation Yrotation Zrotation
										JOINT right_ee
										{
											OFFSET	80.8	-5.10001	12.1
											CHANNELS 3  Xrotation Yrotation Zrotation
											End Site
											{
												OFFSET	1	0	0
											}
										}
									}
								}
							}
						}
					}
				}
			}
		}
	}
	JOINT left_hip
	{
		OFFSET	-82.8	-127.5	0.300001
		CHANNELS 3  Xrotation Yrotation Zrotation
		JOINT left_knee
		{
			OFFSET	-28.2	-396.7	2.2
			CHANNELS 3  Xrotation Yrotation Zrotation
			JOINT left_ankle
			{
				OFFSET	-11.7	-411.3	35.4
				CHANNELS 3  Xrotation Yrotation Zrotation
				JOINT left_toes
				{
					OFFSET	0	-60	-88.6
					CHANNELS 3  Xrotation Yrotation Zrotation
					JOINT left_foot_ee
					{
						OFFSET	-22.5	-16.5	-42.2
						CHANNELS 3  Xrotation Yrotation Zrotation
						End Site
						{
							OFFSET	1	0	0
						}
					}
				}
			}
		}
	}
	JOINT right_hip
	{
		OFFSET	82.8	-127.5	0.300001
		CHANNELS 3  Xrotation Yrotation Zrotation
		JOINT right_knee
		{
			OFFSET	28.2	-396.7	2.2
			CHANNELS 3  Xrotation Yrotation Zrotation
			JOINT right_ankle
			{
				OFFSET	11.7	-411.3	35.4
				CHANNELS 3  Xrotation Yrotation Zrotation
				JOINT right_toes
				{
					OFFSET	0	-60	-88.6
					CHANNELS 3  Xrotation Yrotation Zrotation
					JOINT right_foot_ee
					{
						OFFSET	22.5	-16.5	-42.2
						CHANNELS 3  Xrotation Yrotation Zrotation
						End Site
						{
							OFFSET	1	0	0
						}
					}
				}
			}
		}
	}
}
MOTION
Frames: 7
Frame Time: 0.02
941.174 716.977 -1459.15 -89.3027 80.2047 87.6097 3.00979 0.396506 1.82703 3.0116 0.279464 1.84854 3.0201 -0.0167817 1.86947 3.01533 0.278625 1.84867 -15.4101 -18.417 3.22429 -16.9084 -37.1034 -3.90705 -0.0 0.0 -0.0 -3.48676 15.8612 -3.66451 -13.9729 -43.211 68.7523 0.237925 -6.72211 0.0139732 -69.7596 -6.51535 5.30004 2.45666 14.8285 21.9119 -0.0 0.0 -0.0 10.3211 -10.8584 -19.3569 -12.6994 29.0065 -59.0071 2.13996 46.6644 -0.923127 85.1581 4.44546 8.87339 2.85921 -2.57855 -20.4948 0.0 0.0 0.0 21.9008 4.48286 -6.11955 -24.0602 0.225387 3.6583 18.2634 5.49427 -2.51435 -11.3311 0.0 0.0 -0.0 0.0 -0.0 15.5594 10.1359 -3.29439 5.80887 0.282408 0.846034 22.946 -11.0259 3.0973 -33.2408 0.0 0.0 0.0 0.0 0.0 
936.648 717.946 -1458.29 -87.2104 79.9665 85.8738 3.04181 0.454095 1.82099 3.04359 0.337321 1.84618 3.05395 0.0418596 1.87627 3.0492 0.337605 1.84613 -14.8123 -18.779 4.26784 -16.2969 -38.3899 -2.86887 -0.0 0.0 -0.0 -3.40025 14.7872 -3.74546 -14.612 -42.931 69.2612 0.206108 -5.82983 0.0104947 -70.7198 -6.63791 5.30814 2.50908 17.0043 22.9133 -0.0 0.0 -0.0 9.95778 -10.0998 -18.7682 -12.5977 29.3815 -59.4043 2.17261 47.097 -0.946956 85.2396 4.45524 8.87712 3.24099 -0.2886 -22.339 0.0 0.0 0.0 22.5255 2.38381 -5.79666 -17.0532 0.319081 2.58787 15.673 7.7192 -2.18059 -12.2635 0.0 0.0 -0.0 0.0 -0.0 15.684 9.07106 -3.84714 5.41174 0.260375 0.789125 25.1708 -9.18879 3.35379 -31.6523 0.0 0.0 0.0 0.0 0.0 
933.913 722.106 -1452.33 -85.2007 79.4263 83.6455 2.74855 0.499463 1.90697 2.75049 0.377129 1.93487 2.76285 0.0571861 1.97044 2.75762 0.367603 1.9367 -15.1283 -18.7357 3.54778 -16.6452 -37.8934 -3.64391 -0.0 0.0 -0.0 -3.16848 14.259 -3.47301 -14.8406 -42.2765 69.8184 0.248204 -7.00966 0.0152018 -68.6164 -6.36958 5.28769 2.4611 11.7642 20.9704 -0.0 0.0 -0.0 8.89356 -9.21085 -16.8742 -12.4028 29.4752 -60.197 2.4397 50.3868 -1.14783 85.4016 4.47467 8.88448 2.98509 -1.6381 -21.0291 0.0 0.0 0.0 22.3095 1.19984 -4.46602 -2.99935 0.111821 0.446669 11.6232 2.35015 -1.65003 -12.8292 0.0 0.0 -0.0 0.0 -0.0 16.8117 6.21019 -3.40774 5.1578 0.246495 0.752659 23.35 -11.5096 3.14772 -30.473 0.0 0.0 0.0 0.0 0.0 
930.905 722.427 -1445.12 -87.2962 78.6359 85.635 2.77851 0.433491 1.92969 2.78053 0.309846 1.95335 2.79066 -0.0112883 1.97773 2.78533 0.301138 1.95471 -14.085 -19.3409 2.11318 -15.4473 -38.1759 -4.80014 -0.0 0.0 -0.0 -3.22065 14.5991 -3.49098 -14.4359 -41.9514 70.8538 0.267444 -7.54699 0.0176394 -68.5307 -6.35866 5.28665 2.3399 11.7331 20.1322 -0.0 0.0 -0.0 8.33035 -8.61455 -15.8749 -12.307 29.5351 -60.1698 2.58197 51.9716 -1.25868 85.2481 4.45625 8.87751 3.07733 -1.67498 -21.7047 0.0 0.0 0.0 21.5583 -0.208011 -3.48192 1.69274 -0.0733977 -0.249372 7.09278 -1.42819 -1.03201 -12.371 0.0 0.0 -0.0 0.0 -0.0 17.8159 7.24085 -1.92317 5.50411 0.265465 0.802376 21.3155 -9.88935 2.8961 -29.8412 0.0 0.0 0.0 0.0 0.0 
925.01 721.839 -1441.17 -88.8754 77.8713 87.3479 2.77153 0.416926 1.90952 2.77351 0.294596 1.93217 2.78302 -0.0231677 1.95436 2.7778 0.285718 1.9335 -14.7954 -19.5096 0.60419 -16.2599 -37.6547 -6.55111 -0.0 0.0 -0.0 -3.0898 15.4342 -3.11469 -14.3341 -41.848 70.807 0.290489 -8.18881 0.0207941 -68.2934 -6.32844 5.28368 2.39566 10.211 20.0035 -0.0 0.0 -0.0 7.85924 -8.42734 -15.0161 -11.9282 29.3873 -60.6512 2.58111 51.9623 -1.258 84.9632 4.42212 8.86444 3.27301 -1.83549 -23.1806 0.0 0.0 0.0 21.054 -0.249979 -2.94089 4.37584 -0.204771 -0.639992 6.8381 -0.497582 -0.993218 -11.6509 0.0 0.0 -0.0 0.0 -0.0 18.9145 3.1934 -2.75519 4.75524 0.224822 0.694726 21.9897 -12.8234 2.98996 -28.7204 0.0 0.0 0.0 0.0 0.0 
920.645 721.554 -1438.76 -87.366 77.5094 86.0909 2.79059 0.352603 1.88936 2.79255 0.231687 1.90796 2.79981 -0.0807798 1.92027 2.79473 0.223448 1.90894 -12.5751 -20.0553 0.83579 -13.6859 -38.6568 -5.63869 -0.0 0.0 -0.0 -3.01169 15.1265 -3.04888 -13.8572 -41.3204 71.2332 0.265182 -7.48389 0.0173435 -66.0545 -6.04387 5.24943 2.41117 5.89861 18.5896 -0.0 0.0 -0.0 8.40296 -8.47863 -16.0183 -11.5532 27.3237 -61.1098 2.42655 50.2347 -1.13771 84.7118 4.39205 8.85276 3.29274 -1.80245 -23.3112 0.0 0.0 0.0 20.6197 -0.522099 -3.0948 4.39273 -0.205655 -0.642431 7.88476 0.410552 -1.13871 -11.8322 0.0 0.0 -0.0 0.0 -0.0 19.7936 3.18994 -2.15359 3.4964 0.159692 0.512627 23.2039 -7.99657 3.1205 -29.0506 0.0 0.0 0.0 0.0 0.0 
912.72 725.05 -1436.92 -84.8508 77.3108 83.6057 2.82314 0.334891 1.97878 2.8253 0.208324 1.99607 2.83203 -0.117014 2.00349 2.82648 0.200804 1.99684 -13.8681 -20.018 0.197153 -15.2124 -38.3151 -6.75883 -0.0 0.0 -0.0 -3.47423 15.8521 -3.64638 -13.415 -40.2504 71.677 0.341824 -9.61091 0.0287366 -65.0295 -5.91405 5.23003 2.20039 5.05288 16.8205 -0.0 0.0 -0.0 8.38496 -9.13875 -15.9404 -12.3562 26.7977 -61.4225 2.39698 49.889 -1.11503 84.4553 4.36142 8.8407 3.13493 -1.72294 -22.1378 0.0 0.0 0.0 20.3569 -0.698501 -3.1745 3.2761 -0.148708 -0.480617 7.26429 -2.98586 -1.06157 -10.9651 0.0 0.0 -0.0 0.0 -0.0 20.1591 2.03817 -2.25138 2.31267 0.102121 0.340153 24.6302 -9.26742 3.29105 -27.9975 0.0 0.0 0.0 0.0 0.0 
